#!OML:ASF E:\motion texture\Top Level 1\Subject 1\Session 1\male.ASF
:FULLY-SPECIFIED
:DEGREES
633
root -22.4528 17.8418 3.53547 646.632 -102.066 -646.126
lowerback 1.93315 0.621536 8.67786
upperback -0.866045 0.977774 5.16797
thorax -1.92539 0.332593 0.459444
lowerneck -19.5028 -3.94602 -5.16918
upperneck 15.4072 -5.02899 5.42831
head 8.25963 -2.14354 2.02158
rclavicle -1.18028e-016 -3.65764e-014
rhumerus -0.673684 28.8246 -86.2182
rradius 75.9436
rwrist -10.0784
rhand -15.135 -10.862
rfingers 7.12502
rthumb 11.0346 -40.5519
lclavicle -1.18028e-016 -3.65764e-014
lhumerus -46.64 -13.4515 93.6537
lradius 45.6322
lwrist -1.47371
lhand -12.8253 3.56948
lfingers 7.12502
lthumb 13.2616 33.1276
rfemur -11.0875 5.63489 39.0479
rtibia 27.2579
rfoot -190.458 174.365
rtoes 18.4128
lfemur -54.8212 9.2452 -5.72937
ltibia 64.2049
lfoot 724.491 -533.646
ltoes -4.28124
634
root -22.597 17.8735 3.53489 648.49 -102.436 -648.181
lowerback 2.21067 0.883744 9.0669
upperback -0.7892 1.36567 5.0718
thorax -1.96982 0.519997 0.130278
lowerneck -19.3761 -4.07571 -5.24495
upperneck 15.2435 -5.2253 5.63376
head 8.2023 -2.22347 2.07823
rclavicle 3.09359e-015 3.85642e-014
rhumerus 1.46581 28.7943 -85.3801
rradius 76.6461
rwrist -10.4403
rhand -15.0828 -10.7784
rfingers 7.12502
rthumb 11.0849 -40.4656
lclavicle 3.09359e-015 3.85642e-014
lhumerus -48.7373 -13.0611 93.2447
lradius 46.3822
lwrist -0.850095
lhand -12.5384 3.56801
lfingers 7.12502
lthumb 13.5381 33.1079
rfemur -9.87 5.97718 39.4143
rtibia 26.5102
rfoot -190.468 174.479
rtoes 18.4401
lfemur -58.122 9.81217 -5.91967
ltibia 61.8666
lfoot 724.026 -533.642
ltoes -3.88643
635
root -22.7426 17.9027 3.53525 650.23 -102.798 -650.089
lowerback 2.46148 1.143 9.4321
upperback -0.73315 1.749 4.97787
thorax -2.0154 0.704827 -0.184377
lowerneck -19.2474 -4.20433 -5.32931
upperneck 15.0927 -5.41416 5.81965
head 8.14877 -2.30268 2.13075
rclavicle 6.88292e-015 -1.78906e-014
rhumerus 3.51636 28.6854 -84.5318
rradius 77.3112
rwrist -10.8934
rhand -15.0447 -10.7192
rfingers 7.12502
rthumb 11.1216 -40.4045
lclavicle 6.88292e-015 -1.78906e-014
lhumerus -50.8093 -12.725 92.7994
lradius 47.1512
lwrist -0.242236
lhand -12.2093 3.587
lfingers 7.12502
lthumb 13.8553 33.1055
rfemur -8.71521 6.28312 39.7474
rtibia 25.8144
rfoot -190.479 174.606
rtoes 18.4516
lfemur -61.3674 10.2972 -6.13689
ltibia 59.7648
lfoot 723.579 -533.727
ltoes -3.34133
636
root -22.8909 17.93 3.53694 651.873 -103.147 -651.864
lowerback 2.6636 1.39945 9.76876
upperback -0.697466 2.12431 4.8881
thorax -2.05046 0.885815 -0.478974
lowerneck -19.1156 -4.33035 -5.41776
upperneck 14.9614 -5.59364 5.97755
head 8.10057 -2.38071 2.17589
rclavicle 1.0343e-014 2.18663e-014
rhumerus 5.47672 28.5127 -83.6723
rradius 77.9265
rwrist -11.3959
rhand -15.0398 -10.683
rfingers 7.12502
rthumb 11.1264 -40.368
lclavicle 1.0343e-014 2.18663e-014
lhumerus -52.8423 -12.445 92.3349
lradius 47.9045
lwrist 0.332451
lhand -11.8745 3.61608
lfingers 7.12502
lthumb 14.1779 33.1123
rfemur -7.62372 6.53771 40.033
rtibia 25.1608
rfoot -190.491 174.766
rtoes 18.4346
lfemur -64.5529 10.6959 -6.3814
ltibia 57.8999
lfoot 723.181 -533.85
ltoes -2.79866
637
root -23.0409 17.9553 3.53939 653.352 -103.477 -653.436
lowerback 2.8207 1.64655 10.0711
upperback -0.681612 2.48265 4.80728
thorax -2.07858 1.05846 -0.744589
lowerneck -18.9977 -4.45126 -5.49948
upperneck 14.8576 -5.76073 6.09586
head 8.06215 -2.45612 2.2082
rclavicle 1.87758e-014 4.45278e-014
rhumerus 7.37277 28.2939 -82.7907
rradius 78.4687
rwrist -11.9083
rhand -15.0678 -10.6488
rfingers 7.12502
rthumb 11.0994 -40.3353
lclavicle 1.87758e-014 4.45278e-014
lhumerus -54.825 -12.2174 91.8639
lradius 48.6261
lwrist 0.870979
lhand -11.5646 3.63717
lfingers 7.12502
lthumb 14.4765 33.1122
rfemur -6.60495 6.73524 40.275
rtibia 24.5545
rfoot -190.511 174.953
rtoes 18.3875
lfemur -67.6814 10.9958 -6.6369
ltibia 56.266
lfoot 722.821 -533.971
ltoes -2.4063
